<?xml version="1.0" encoding="utf-8"?>
<svg width="1231px" height="342px" viewBox="0 0 1231 342" version="1.1" xmlns:xlink="http://www.w3.org/1999/xlink" xmlns="http://www.w3.org/2000/svg">
  <desc>Created with Lunacy</desc>
  <g id="Border" transform="matrix(-4.371139E-08 1 -1 -4.371139E-08 1231 6.1035156E-05)">
    <path d="M305.577 1230.46L0 1230.46L0 0L305.577 0L305.577 1230.46ZM302.272 1225.99L3.24701 1225.99L3.24701 4.46103L302.272 4.46103L302.272 1225.99Z" transform="translate(17.433893 0.41264442)" id="Fill-1" fill="#8D734A" fill-rule="evenodd" stroke="none" />
    <path d="M0 2.93296L299.085 2.93296L299.085 0L0 0L0 2.93296Z" transform="translate(20.62085 1212.4202)" id="Fill-2" fill="#8A8F9D" fill-rule="evenodd" stroke="none" />
    <path d="M6.48758 2.93296L0 2.93296L0 0L8.63223 0L8.63223 1199.42L0 1199.42L0 1196.49L6.48758 1196.49L6.48758 2.93296Z" transform="translate(322.95145 15.932988)" id="Fill-4" fill="#8A8F9D" fill-rule="evenodd" stroke="none" />
    <path d="M2.14465 1196.49L8.63438 1196.49L8.63438 1199.42L0 1199.42L0 0L8.63438 0L8.63438 2.93296L2.14465 2.93296L2.14465 1196.49Z" transform="translate(8.73775 15.933867)" id="Fill-5" fill="#8A8F9D" fill-rule="evenodd" stroke="none" />
    <path d="M340.41 1169.17L0 1169.17L0 0L340.41 0L340.41 1169.17ZM339.136 1166.97L1.55058 1166.97L1.55058 2.19972L339.136 2.19972L339.136 1166.97Z" transform="translate(-8.526513E-14 31.056208)" id="Fill-6" fill="#8D734A" fill-rule="evenodd" stroke="none" />
  </g>
</svg>