<?xml version="1.0" encoding="utf-8"?>
<svg width="155px" height="16px" viewBox="0 0 155 16" version="1.1" xmlns:xlink="http://www.w3.org/1999/xlink" xmlns="http://www.w3.org/2000/svg">
  <desc>Created with Lunacy</desc>
  <defs>
    <path d="M0 167.79L24.9691 167.79L24.9691 0L0 0L0 167.79Z" id="path_1" />
    <clipPath id="mask_1">
      <use xlink:href="#path_1" />
    </clipPath>
  </defs>
  <g id="Page-1" transform="matrix(-4.371139E-08 -1 1 -4.371139E-08 -13 16)">
    <path d="M1.35294 0C0.605882 0 0 0.59159 0 1.32246C0 2.0519 0.605882 2.64349 1.35294 2.64349C2.10294 2.64349 2.70882 2.0519 2.70882 1.32246C2.70882 0.59159 2.10294 0 1.35294 0" transform="translate(9.7439575 20.358398)" id="Fill-3" fill="#9293A1" fill-rule="evenodd" stroke="none" />
    <path d="M1.35294 0C0.605882 0 0 0.59159 0 1.3239C0 2.05333 0.605882 2.64492 1.35294 2.64492C2.10294 2.64492 2.70882 2.05333 2.70882 1.3239C2.70882 0.59159 2.10294 0 1.35294 0" transform="translate(9.7439575 34.127197)" id="Fill-5" fill="#9293A1" fill-rule="evenodd" stroke="none" />
    <path d="M1.35294 0C0.605882 0 0 0.59159 0 1.32246C0 2.0519 0.605882 2.64349 1.35294 2.64349C2.10294 2.64349 2.70882 2.0519 2.70882 1.32246C2.70882 0.59159 2.10294 0 1.35294 0" transform="translate(9.7439575 47.96289)" id="Fill-7" fill="#9293A1" fill-rule="evenodd" stroke="none" />
    <path d="M1.35294 0C0.605882 0 0 0.59159 0 1.3239C0 2.05333 0.605882 2.64492 1.35294 2.64492C2.10294 2.64492 2.70882 2.05333 2.70882 1.3239C2.70882 0.59159 2.10294 0 1.35294 0" transform="translate(9.743988 61.815918)" id="Fill-9" fill="#9293A1" fill-rule="evenodd" stroke="none" />
    <path d="M1.35294 0C0.605882 0 0 0.59159 0 1.32103C0 2.05333 0.605882 2.64492 1.35294 2.64492C2.10294 2.64492 2.70882 2.05333 2.70882 1.32103C2.70882 0.59159 2.10294 0 1.35294 0" transform="translate(9.743988 75.625244)" id="Fill-11" fill="#9293A1" fill-rule="evenodd" stroke="none" />
    <path d="M1.35294 0C0.605882 0 0 0.59159 0 1.32103C0 2.05046 0.605882 2.64205 1.35294 2.64205C2.10294 2.64205 2.70882 2.05046 2.70882 1.32103C2.70882 0.59159 2.10294 0 1.35294 0" transform="translate(9.743988 89.4834)" id="Fill-13" fill="#9293A1" fill-rule="evenodd" stroke="none" />
    <path d="M1.35294 0C0.605882 0 0 0.59159 0 1.3239C0 2.05333 0.605882 2.64492 1.35294 2.64492C2.10294 2.64492 2.70882 2.05333 2.70882 1.3239C2.70882 0.59159 2.10294 0 1.35294 0" transform="translate(9.743988 103.32349)" id="Fill-15" fill="#9293A1" fill-rule="evenodd" stroke="none" />
    <path d="M1.35294 0C0.605882 0 0 0.59159 0 1.3239C0 2.05333 0.605882 2.64492 1.35294 2.64492C2.10294 2.64492 2.70882 2.05333 2.70882 1.3239C2.70882 0.59159 2.10294 0 1.35294 0" transform="translate(9.743988 117.17212)" id="Fill-17" fill="#9293A1" fill-rule="evenodd" stroke="none" />
    <path d="M1.35294 0C0.605882 0 0 0.59159 0 1.3239C0 2.05333 0.605882 2.64492 1.35294 2.64492C2.10294 2.64492 2.70882 2.05333 2.70882 1.3239C2.70882 0.59159 2.10294 0 1.35294 0" transform="translate(9.743988 131.00659)" id="Fill-19" fill="#9293A1" fill-rule="evenodd" stroke="none" />
    <path d="M1.35294 0C0.605882 0 0 0.59159 0 1.3239C0 2.05333 0.605882 2.64492 1.35294 2.64492C2.10294 2.64492 2.70882 2.05333 2.70882 1.3239C2.70882 0.59159 2.10294 0 1.35294 0" transform="translate(9.743988 144.8833)" id="Fill-21" fill="#9293A1" fill-rule="evenodd" stroke="none" />
    <path d="M1.35294 0C0.605882 0 0 0.59159 0 1.32103C0 2.05046 0.605882 2.64205 1.35294 2.64205C2.10294 2.64205 2.70882 2.05046 2.70882 1.32103C2.70882 0.59159 2.10294 0 1.35294 0" transform="translate(9.743988 158.7207)" id="Fill-23" fill="#9293A1" fill-rule="evenodd" stroke="none" />
    <path d="M0 13.8377L0 27.6726L0 41.5089L0 55.3452L0 69.1815L0 83.0193L0 96.8513L0 110.689L0 124.524L0 138.362L0 152.198L0 166.033L1.47059 166.033L1.47059 159.192L0.494118 158.239L1.47059 157.285L1.47059 152.198L1.47059 145.359L0.494118 144.402L1.47059 143.449L1.47059 138.362L1.47059 131.521L0.494118 130.565L1.47059 129.611L1.47059 124.524L1.47059 117.683L0.494118 116.73L1.47059 115.776L1.47059 110.689L1.47059 103.85L0.494118 102.895L1.47059 101.939L1.47059 96.8513L1.47059 90.0121L0.494118 89.0587L1.47059 88.1052L1.47059 83.0193L1.47059 76.1758L0.494118 75.2224L1.47059 74.2689L1.47059 69.1815L1.47059 62.3409L0.494118 61.3861L1.47059 60.4312L1.47059 55.3452L1.47059 48.5046L0.494118 47.5512L1.47059 46.5963L1.47059 41.5089L1.47059 34.6669L0.494118 33.7134L1.47059 32.76L1.47059 27.6726L1.47059 20.8306L0.494118 19.8786L1.47059 18.9251L1.47059 13.8377L1.47059 6.99426L0.494118 6.04082L1.47059 5.08738L1.47059 0L0 0L0 13.8377Z" transform="translate(4.4117737 1.751709)" id="Fill-27" fill="#FEFEFE" fill-rule="evenodd" stroke="none" />
    <path d="M0 167.79L24.9691 167.79L24.9691 0L0 0L0 167.79Z" id="Clip-30" fill="none" fill-rule="evenodd" stroke="none" />
    <g clip-path="url(#mask_1)">
      <path d="M0 167.79L5.91912 167.79L10.8515 167.79L11.9544 167.79L16.3397 167.79L20.9838 167.79L20.9838 167.787L24.9471 167.787L24.9471 166.034L20.9838 166.034L19.6191 166.034L16.3397 166.034L16.3397 160.944L11.1294 166.034L5.91912 160.947L5.91912 166.034L0 166.034L0 160.869L4.44853 160.869L4.44853 159.116L0 159.116L0 153.953L5.91912 153.953L5.91912 159.04L11.1294 153.953L16.3397 159.04L16.3397 153.953L20.9838 153.953L20.9838 153.944L24.9471 153.944L24.9471 152.192L19.6191 152.192L19.6191 152.198L16.3397 152.198L16.3397 147.111L11.1294 152.198L5.91912 147.111L5.91912 152.198L0 152.198L0 147.034L4.44853 147.034L4.44853 145.281L0 145.281L0 140.116L5.91912 140.116L5.91912 145.204L11.1294 140.116L16.3397 145.204L16.3397 140.116L19.6191 140.116L20.9838 140.116L24.9471 140.116L24.9471 138.363L20.9838 138.363L19.6191 138.363L16.3397 138.363L16.3397 133.276L11.1294 138.363L5.91912 133.276L5.91912 138.363L0 138.363L0 133.197L4.44853 133.197L4.44853 131.445L0 131.445L0 126.281L5.91912 126.281L5.91912 131.366L11.1294 126.281L16.3397 131.369L16.3397 126.281L20.9838 126.281L20.9838 126.279L20.9838 126.276L24.9471 126.276L24.9471 124.522L19.6191 124.522L19.6191 124.525L16.3397 124.525L16.3397 119.438L11.1294 124.525L5.91912 119.438L5.91912 124.525L0 124.525L0 119.359L4.44853 119.359L4.44853 117.607L0 117.607L0 112.444L5.91912 112.444L5.91912 117.531L11.1294 112.444L16.3397 117.531L16.3397 112.444L20.9838 112.444L20.9838 112.438L24.9471 112.438L24.9471 110.685L19.6191 110.685L19.6191 110.688L16.3397 110.688L16.3397 105.6L11.1294 110.688L5.91912 105.6L5.91912 110.688L0 110.688L0 105.526L4.44853 105.526L4.44853 103.772L0 103.772L0 98.6059L5.91912 98.6059L5.91912 103.696L11.1294 98.6059L16.3397 103.696L16.3397 98.6059L20.9838 98.6059L20.9838 98.5902L24.9471 98.5902L24.9471 96.8369L19.6191 96.8369L19.6191 96.8542L16.3397 96.8542L16.3397 91.7668L11.1294 96.8542L5.91912 91.7668L5.91912 96.8542L0 96.8542L0 91.6907L4.44853 91.6907L4.44853 89.9346L0 89.9346L0 84.7682L5.91912 84.7682L5.91912 89.8599L11.1294 84.7682L16.3397 89.8599L16.3397 84.7682L20.9838 84.7682L24.9471 84.7682L24.9471 83.015L20.9838 83.015L16.3397 83.015L16.3397 77.9276L11.1294 83.015L5.91912 77.9276L5.91912 83.015L0 83.015L0 77.8515L4.44853 77.8515L4.44853 76.0968L0 76.0968L0 70.9333L5.91912 70.9333L5.91912 76.0207L11.1294 70.9333L16.3397 76.0207L16.3397 70.9333L20.9838 70.9333L20.9838 70.9305L24.9471 70.9305L24.9471 69.1787L19.6191 69.1787L19.6191 69.1801L16.3397 69.1801L16.3397 64.0898L11.1294 69.1772L5.91912 64.0898L5.91912 69.1801L0 69.1801L0 64.0152L4.44853 64.0152L4.44853 62.2591L0 62.2591L0 57.0956L5.91912 57.0956L5.91912 62.183L11.1294 57.0956L16.3397 62.183L16.3397 57.0956L20.9838 57.0956L20.9838 57.0812L24.9471 57.0812L24.9471 55.3294L19.6191 55.3294L19.6191 55.3424L16.3397 55.3424L16.3397 50.2564L11.1294 55.3424L5.91912 50.2564L5.91912 55.3424L0 55.3424L0 50.1774L4.44853 50.1774L4.44853 48.4242L0 48.4242L0 43.2607L5.91912 43.2607L5.91912 48.3481L11.1294 43.2607L16.3397 48.3481L16.3397 43.2607L20.9838 43.2607L20.9838 43.2578L24.9471 43.2578L24.9471 41.5075L20.9838 41.5075L20.9838 41.5061L16.3397 41.5061L16.3397 36.4187L11.1294 41.5061L5.91912 36.4187L5.91912 41.5061L0 41.5061L0 36.3426L4.44853 36.3426L4.44853 34.5865L0 34.5865L0 29.4244L5.91912 29.4244L5.91912 34.5118L11.1294 29.4244L16.3397 34.5118L16.3397 29.4244L19.6191 29.4244L20.9838 29.4244L24.9471 29.4244L24.9471 27.6712L20.9838 27.6712L16.3397 27.6712L16.3397 22.5809L11.1294 27.6683L5.91912 22.5838L5.91912 27.6712L0 27.6712L0 22.5048L4.44853 22.5048L4.44853 20.753L0 20.753L0 15.5867L5.91912 15.5867L5.91912 20.6741L11.1294 15.5867L16.3397 20.6769L16.3397 15.5867L20.9838 15.5867L20.9838 15.5723L24.9471 15.5723L24.9471 13.8205L19.6191 13.8205L19.6191 13.8334L16.3397 13.8334L16.3397 8.74605L11.1294 13.8334L5.91912 8.74749L5.91912 13.8334L0 13.8334L0 8.66995L4.44853 8.66995L4.44853 6.91528L0 6.91528L0 1.75179L5.91912 1.75179L5.91912 6.83918L11.1294 1.75179L16.3397 6.83918L16.3397 1.75179L19.6191 1.75179L20.9838 1.75179L24.9471 1.75179L24.9471 0L20.9838 0L11.9544 0L10.8515 0L0 0" id="Fill-42" fill="#8D734A" fill-rule="evenodd" stroke="none" />
      <path d="M1.47059 0L0 0" transform="translate(4.418976 167.7876)" id="Fill-44" fill="#9293A1" fill-rule="evenodd" stroke="none" />
    </g>
  </g>
</svg>